<?xml version="1.0" encoding="UTF-8"?>
<!-- Created with Inkscape (http://www.inkscape.org/) -->
<svg width="500mm" height="210mm" version="1.1" viewBox="0 0 500 210" xml:space="preserve" xmlns="http://www.w3.org/2000/svg">
    <!-- Car outline -->
    <path name="outline" d="m457 33 29 18v23l-10 3.5-4 21-21 14-82 14-9.6-5-58 55-45 6.9-25 5.7-150 2.5-8.1-8.1-32 3.1 7.6-15-18-50v15l-6.1 3.9-16 0.26-7.4-4.7-1.8-65 3.4-7.9 18-0.63-0.1-9 15-11 38-1.6 12-10-0.21 16 3.5 14 6.8 12 9.1 9.1 12 6.4 15 2.2 15-1.7 13-7.5 10-11 6.5-14 2.5-19 184-1.9 0.077 12 2.4 11 5 11 8.7 9.6 11 6.8 14 3.1 16-0.83 14-6.2c0.29-0.13 7.4-6.1 11-11 3.4-4.9 6.4-11 6.4-11l3.6-12z"/>

    <!-- Windows -->
    <!-- <path d="m340 121-96 2.2-7.1 48 59-6z"/>
    <path d="m229 123-84 5 3.5 45 82-1.9z"/>
    <path d="m129 133-53 6.9 7.9 28 47-0.79z"/> -->

    <!-- Wheels -->
    <circle cx="410" cy="38" r="38"/>
    <circle cx="133" cy="38" r="38"/>
</svg>
